<?xml version="1.0" encoding="UTF-8"?>
<svg width="200" height="60" viewBox="0 0 200 60" fill="none" xmlns="http://www.w3.org/2000/svg">
  <!-- Background Shapes -->
  <rect x="10" y="15" width="40" height="30" rx="6" fill="#4F46E5" />
  <circle cx="70" cy="30" r="15" fill="#3B82F6" />
  <path d="M100 15L115 45H85L100 15Z" fill="#F97316" />
  
  <!-- SEO Text -->
  <text x="130" y="38" font-family="Arial, sans-serif" font-weight="700" font-size="24" fill="#111827">SEO</text>
  <text x="130" y="50" font-family="Arial, sans-serif" font-weight="500" font-size="12" fill="#4B5563">SOLUTIONS</text>
  
  <!-- Search Icon -->
  <circle cx="30" cy="30" r="8" stroke="white" stroke-width="2" />
  <path d="M36 36L42 42" stroke="white" stroke-width="2" stroke-linecap="round" />
  
  <!-- Graph Icon -->
  <path d="M60 35V25" stroke="white" stroke-width="2" stroke-linecap="round" />
  <path d="M65 35V28" stroke="white" stroke-width="2" stroke-linecap="round" />
  <path d="M70 35V22" stroke="white" stroke-width="2" stroke-linecap="round" />
  <path d="M75 35V30" stroke="white" stroke-width="2" stroke-linecap="round" />
  <path d="M80 35V26" stroke="white" stroke-width="2" stroke-linecap="round" />
  
  <!-- Target Icon -->
  <circle cx="100" cy="30" r="10" stroke="white" stroke-width="1" />
  <circle cx="100" cy="30" r="6" stroke="white" stroke-width="1" />
  <circle cx="100" cy="30" r="2" fill="white" />
  <path d="M100 16V20" stroke="white" stroke-width="1" stroke-linecap="round" />
  <path d="M100 40V44" stroke="white" stroke-width="1" stroke-linecap="round" />
  <path d="M86 30H90" stroke="white" stroke-width="1" stroke-linecap="round" />
  <path d="M110 30H114" stroke="white" stroke-width="1" stroke-linecap="round" />
</svg>
